2014019_C5_03_grf
version=1
nRows=34
nColumns=19
inDegrees=no
endheader
time	ground_force_1_vx	ground_force_1_vy	ground_force_1_vz	ground_force_1_px	ground_force_1_py	ground_force_1_pz	ground_force_1_mx	ground_force_1_my	ground_force_1_mz	ground_force_2_vx	ground_force_2_vy	ground_force_2_vz	ground_force_2_px	ground_force_2_py	ground_force_2_pz	ground_force_2_mx	ground_force_2_my	ground_force_2_mz
      0.35500000	      0.00000000	      0.00000000	      0.00000000	      0.00000000	      0.00000000	      0.00000000	      0.00000000	      0.00000000	      0.00000000	    -15.73335263	    549.98799786	     29.62168455	     -0.83999181	     -0.00200000	      0.16116233	      0.00000000	     -0.67634709	      0.00000000
      0.35600000	      0.00000000	      0.00000000	      0.00000000	      0.00000000	      0.00000000	      0.00000000	      0.00000000	      0.00000000	      0.00000000	    -15.40998230	    553.41317877	     29.42894101	     -0.83966009	     -0.00200000	      0.16134842	      0.00000000	     -0.71041189	     -0.00000000
      0.35700000	      0.00000000	      0.00000000	      0.00000000	      0.00000000	      0.00000000	      0.00000000	      0.00000000	      0.00000000	      0.00000000	    -15.07751411	    556.87648058	     29.22859788	     -0.83933345	     -0.00200000	      0.16153645	      0.00000000	     -0.74512958	      0.00000000
      0.35800000	      0.00000000	      0.00000000	      0.00000000	      0.00000000	      0.00000000	      0.00000000	      0.00000000	      0.00000000	      0.00000000	    -14.73712642	    560.36905199	     29.02207375	     -0.83901089	     -0.00200000	      0.16172594	      0.00000000	     -0.78040439	     -0.00000000
      0.35900000	      0.00000000	      0.00000000	      0.00000000	      0.00000000	      0.00000000	      0.00000000	      0.00000000	      0.00000000	      0.00000000	    -14.38606298	    563.89665976	     28.80769372	     -0.83869341	     -0.00200000	      0.16191718	      0.00000000	     -0.81641967	      0.00000000
      0.36000000	      0.00000000	      0.00000000	      0.00000000	      0.00000000	      0.00000000	      0.00000000	      0.00000000	      0.00000000	      0.00000000	    -14.02585208	    567.45108962	     28.58693302	     -0.83838002	     -0.00200000	      0.16210974	      0.00000000	     -0.85306470	     -0.00000000
      0.36100000	      0.00000000	      0.00000000	      0.00000000	      0.00000000	      0.00000000	      0.00000000	      0.00000000	      0.00000000	      0.00000000	    -13.65347975	    571.03747129	     28.35808247	     -0.83807175	     -0.00200000	      0.16230386	      0.00000000	     -0.89054497	     -0.00000000
      0.36200000	      0.00000000	      0.00000000	      0.00000000	      0.00000000	      0.00000000	      0.00000000	      0.00000000	      0.00000000	      0.00000000	    -13.27081863	    574.64832813	     28.12267840	     -0.83776759	     -0.00200000	      0.16249918	      0.00000000	     -0.92873204	     -0.00000000
      0.36300000	      0.00000000	      0.00000000	      0.00000000	      0.00000000	      0.00000000	      0.00000000	      0.00000000	      0.00000000	      0.00000000	    -12.87463750	    578.28828692	     27.87899673	     -0.83746860	     -0.00200000	      0.16269591	     -0.00000000	     -0.96785140	     -0.00000000
      0.36400000	      0.00000000	      0.00000000	      0.00000000	      0.00000000	      0.00000000	      0.00000000	      0.00000000	      0.00000000	      0.00000000	    -12.46714080	    581.95030689	     27.62863934	     -0.83717376	     -0.00200000	      0.16289370	      0.00000000	     -1.00775486	     -0.00000000
      0.36500000	      0.00000000	      0.00000000	      0.00000000	      0.00000000	      0.00000000	      0.00000000	      0.00000000	      0.00000000	      0.00000000	    -12.04492408	    585.63854545	     27.36989260	     -0.83688412	     -0.00200000	      0.16309270	      0.00000000	     -1.04868312	      0.00000000
      0.36600000	      0.00000000	      0.00000000	      0.00000000	      0.00000000	      0.00000000	      0.00000000	      0.00000000	      0.00000000	      0.00000000	    -11.61050331	    589.34656531	     27.10442543	     -0.83659864	     -0.00200000	      0.16329260	      0.00000000	     -1.09046610	     -0.00000000
      0.36700000	      0.00000000	      0.00000000	      0.00000000	      0.00000000	      0.00000000	      0.00000000	      0.00000000	      0.00000000	      0.00000000	    -11.16033469	    593.07805449	     26.83056444	     -0.83631835	     -0.00200000	      0.16349351	      0.00000000	     -1.13335763	      0.00000000
      0.36800000	      0.00000000	      0.00000000	      0.00000000	      0.00000000	      0.00000000	      0.00000000	      0.00000000	      0.00000000	      0.00000000	    -10.69721114	    596.82717919	     26.55001283	     -0.83604222	     -0.00200000	      0.16369516	      0.00000000	     -1.17716667	     -0.00000000
      0.36900000	      0.00000000	      0.00000000	      0.00000000	      0.00000000	      0.00000000	      0.00000000	      0.00000000	      0.00000000	      0.00000000	    -10.21750469	    600.59712455	     26.26115233	     -0.83577127	     -0.00200000	      0.16389763	      0.00000000	     -1.22215569	      0.00000000
      0.37000000	      0.00000000	      0.00000000	      0.00000000	      0.00000000	      0.00000000	      0.00000000	      0.00000000	      0.00000000	      0.00000000	     -9.72426496	    604.38276082	     25.96569955	     -0.83550446	     -0.00200000	      0.16410070	      0.00000000	     -1.26811298	     -0.00000000
      0.37100000	      0.00000000	      0.00000000	      0.00000000	      0.00000000	      0.00000000	      0.00000000	      0.00000000	      0.00000000	      0.00000000	     -9.21382767	    608.18673670	     25.66211075	     -0.83524280	     -0.00200000	      0.16430443	      0.00000000	     -1.31530806	     -0.00000000
      0.37200000	      0.00000000	      0.00000000	      0.00000000	      0.00000000	      0.00000000	      0.00000000	      0.00000000	      0.00000000	      0.00000000	     -8.68944288	    612.00466007	     25.35210550	     -0.83498523	     -0.00200000	      0.16450865	      0.00000000	     -1.36351127	     -0.00000000
      0.37300000	      0.00000000	      0.00000000	      0.00000000	      0.00000000	      0.00000000	      0.00000000	      0.00000000	      0.00000000	      0.00000000	     -8.14744143	    615.83897844	     25.03422201	     -0.83473272	     -0.00200000	      0.16471340	      0.00000000	     -1.41299425	      0.00000000
      0.37400000	      0.00000000	      0.00000000	      0.00000000	      0.00000000	      0.00000000	      0.00000000	      0.00000000	      0.00000000	      0.00000000	     -7.59123894	    619.68563497	     24.71017241	     -0.83448425	     -0.00200000	      0.16491855	      0.00000000	     -1.46351313	     -0.00000000
      0.37500000	      0.00000000	      0.00000000	      0.00000000	      0.00000000	      0.00000000	      0.00000000	      0.00000000	      0.00000000	      0.00000000	     -7.01720710	    623.54660779	     24.37860370	     -0.83424077	     -0.00200000	      0.16512411	      0.00000000	     -1.51533454	     -0.00000000
      0.37600000	      0.00000000	      0.00000000	      0.00000000	      0.00000000	      0.00000000	      0.00000000	      0.00000000	      0.00000000	      0.00000000	     -6.42889389	    627.41817534	     24.04118627	     -0.83400125	     -0.00200000	      0.16532994	      0.00000000	     -1.56819865	     -0.00000000
      0.37700000	      0.00000000	      0.00000000	      0.00000000	      0.00000000	      0.00000000	      0.00000000	      0.00000000	      0.00000000	      0.00000000	     -5.82276424	    631.30194694	     23.69669005	     -0.83376662	     -0.00200000	      0.16553603	      0.00000000	     -1.62235924	      0.00000000
      0.37800000	      0.00000000	      0.00000000	      0.00000000	      0.00000000	      0.00000000	      0.00000000	      0.00000000	      0.00000000	      0.00000000	     -5.20245137	    635.19456983	     23.34672809	     -0.83353586	     -0.00200000	      0.16574223	      0.00000000	     -1.67754714	     -0.00000000
      0.37900000	      0.00000000	      0.00000000	      0.00000000	      0.00000000	      0.00000000	      0.00000000	      0.00000000	      0.00000000	      0.00000000	     -4.56454715	    639.09721747	     22.99021110	     -0.83330988	     -0.00200000	      0.16594848	      0.00000000	     -1.73400052	      0.00000000
      0.38000000	      0.00000000	      0.00000000	      0.00000000	      0.00000000	      0.00000000	      0.00000000	      0.00000000	      0.00000000	      0.00000000	     -3.91271012	    643.00704002	     22.62869477	     -0.83308765	     -0.00200000	      0.16615469	      0.00000000	     -1.79144720	     -0.00000000
      0.38100000	      0.00000000	      0.00000000	      0.00000000	      0.00000000	      0.00000000	      0.00000000	      0.00000000	      0.00000000	      0.00000000	     -3.24366713	    646.92484215	     22.26127833	     -0.83287003	     -0.00200000	      0.16636074	      0.00000000	     -1.85010514	      0.00000000
      0.38200000	      0.00000000	      0.00000000	      0.00000000	      0.00000000	      0.00000000	      0.00000000	      0.00000000	      0.00000000	      0.00000000	     -2.56105175	    650.84814280	     21.88944966	     -0.83265606	     -0.00200000	      0.16656659	     -0.00000000	     -1.90970438	      0.00000000
      0.38300000	      0.00000000	      0.00000000	      0.00000000	      0.00000000	      0.00000000	      0.00000000	      0.00000000	      0.00000000	      0.00000000	     -1.86174660	    654.77741137	     21.51253968	     -0.83244652	     -0.00200000	      0.16677210	     -0.00000000	     -1.97043884	      0.00000000
      0.38400000	      0.00000000	      0.00000000	      0.00000000	      0.00000000	      0.00000000	      0.00000000	      0.00000000	      0.00000000	      0.00000000	     -1.14932752	    658.71056914	     21.13194019	     -0.83224047	     -0.00200000	      0.16697723	      0.00000000	     -2.03204358	     -0.00000000
      0.38500000	      0.00000000	      0.00000000	      0.00000000	      0.00000000	      0.00000000	      0.00000000	      0.00000000	      0.00000000	      0.00000000	     -0.42082888	    662.64761612	     20.74724957	     -0.83203870	     -0.00200000	      0.16718181	      0.00000000	     -2.09467903	      0.00000000
      0.38600000	      0.00000000	      0.00000000	      0.00000000	      0.00000000	      0.00000000	      0.00000000	      0.00000000	      0.00000000	      0.00000000	      0.32027512	    666.58701003	     20.35973072	     -0.83184027	     -0.00200000	      0.16738587	      0.00000000	     -2.15808765	      0.00000000
      0.38700000	      0.00000000	      0.00000000	      0.00000000	      0.00000000	      0.00000000	      0.00000000	      0.00000000	      0.00000000	      0.00000000	      1.07680197	    670.52838206	     19.96928528	     -0.83164593	     -0.00200000	      0.16758920	      0.00000000	     -2.22239280	      0.00000000
      0.38800000	      0.00000000	      0.00000000	      0.00000000	      0.00000000	      0.00000000	      0.00000000	      0.00000000	      0.00000000	      0.00000000	      1.84539158	    674.47055876	     19.57701147	     -0.83145479	     -0.00200000	      0.16779186	      0.00000000	     -2.28735407	     -0.00000000
